<?xml version="1.0" encoding="UTF-8"?>
<svg version="1.1" xmlns="http://www.w3.org/2000/svg" width="1309" height="1309">
<path d="M0 0 C431.97 0 863.94 0 1309 0 C1309 431.97 1309 863.94 1309 1309 C877.03 1309 445.06 1309 0 1309 C0 877.03 0 445.06 0 0 Z " fill="#FDFDFD" transform="translate(0,0)"/>
<path d="M0 0 C1.23207184 0.00149048 2.46414368 0.00298096 3.73355103 0.0045166 C28.56246851 0.0584982 52.65997467 1.49390569 76.98779297 6.76660156 C79.72651227 7.34727446 82.47245626 7.87498977 85.22265625 8.3984375 C104.53293354 12.17857646 122.3106724 18.87790678 139.5625 28.3125 C140.531875 28.84101563 141.50125 29.36953125 142.5 29.9140625 C159.45973325 39.92227718 173.87094329 56.23080725 179.5625 75.3125 C179.5625 76.6325 179.5625 77.9525 179.5625 79.3125 C180.07296875 79.02117187 180.5834375 78.72984375 181.109375 78.4296875 C183.5821709 77.03545151 186.07049182 75.67209991 188.5625 74.3125 C189.46742188 73.80847656 190.37234375 73.30445313 191.3046875 72.78515625 C209.47389858 63.10968206 232.07381619 60.43460381 252 66.4375 C260.71784496 69.32553638 268.73978026 73.55696174 276.5625 78.3125 C277.27212891 76.80623047 277.27212891 76.80623047 277.99609375 75.26953125 C292.79100147 44.42025186 315.5067661 25.79990414 347.703125 14.42578125 C352.28202774 12.9014759 356.90718503 11.58058785 361.5625 10.3125 C362.21138184 10.1263916 362.86026367 9.9402832 363.52880859 9.74853516 C420.24305734 -6.50788817 490.05431578 -5.30566339 546.5625 11.3125 C547.39168945 11.55081543 548.22087891 11.78913086 549.07519531 12.03466797 C575.29662306 19.70319873 600.23838127 33.71975171 613.828125 58.28125 C621.07506079 72.01982105 624.26175172 84.90890195 625.5625 100.3125 C626.24352783 100.29678955 626.92455566 100.2810791 627.6262207 100.26489258 C630.70906281 100.20256778 633.79177244 100.16351742 636.875 100.125 C637.94685547 100.09986328 639.01871094 100.07472656 640.12304688 100.04882812 C641.66508789 100.03432617 641.66508789 100.03432617 643.23828125 100.01953125 C644.18614502 100.0038208 645.13400879 99.98811035 646.1105957 99.97192383 C648.5625 100.3125 648.5625 100.3125 650.37036133 101.7097168 C651.85347197 103.70370028 651.96553106 104.84576631 651.9375 107.3125 C651.94523437 107.993125 651.95296875 108.67375 651.9609375 109.375 C651.43427039 111.93604793 650.61763423 112.71207365 648.5625 114.3125 C646.20239258 114.65307617 646.20239258 114.65307617 643.45703125 114.60546875 C642.47412109 114.59580078 641.49121094 114.58613281 640.47851562 114.57617188 C639.45435547 114.55103516 638.43019531 114.52589844 637.375 114.5 C635.82135742 114.47969727 635.82135742 114.47969727 634.23632812 114.45898438 C631.67786301 114.42361389 629.1204422 114.37425544 626.5625 114.3125 C626.57821045 115.47483154 626.5939209 116.63716309 626.61010742 117.8347168 C627.15008635 161.62344636 627.15008635 161.62344636 623.5625 177.3125 C623.41264648 177.97523926 623.26279297 178.63797852 623.10839844 179.32080078 C622.08278118 183.70090504 620.84247696 188.00124185 619.5625 192.3125 C619.20919886 193.62027608 618.85902685 194.92890085 618.51171875 196.23828125 C608.20159777 234.31620713 586.90263142 268.67365052 552.5625 289.3125 C551.89669922 289.71549316 551.23089844 290.11848633 550.54492188 290.53369141 C522.26592743 307.32009162 489.77189601 311.75432962 457.4375 311.6875 C455.94864792 311.68668427 455.94864792 311.68668427 454.42971802 311.68585205 C439.76402983 311.64891338 425.80464 311.11928844 411.5625 307.3125 C410.71623047 307.09819336 409.86996094 306.88388672 408.99804688 306.66308594 C371.40205819 296.98951132 339.33838249 275.7602693 316.5625 244.3125 C316.08603027 243.66394043 315.60956055 243.01538086 315.11865234 242.34716797 C305.4168878 229.00124805 297.1318779 214.09132556 291.56494141 198.52270508 C291.06873291 197.42865356 291.06873291 197.42865356 290.5625 196.3125 C289.3559375 195.9721875 289.3559375 195.9721875 288.125 195.625 C285.5625 194.3125 285.5625 194.3125 284.76586914 192.35058594 C284.43510376 191.11743652 284.43510376 191.11743652 284.09765625 189.859375 C283.84653076 188.95485596 283.59540527 188.05033691 283.33666992 187.1184082 C283.08119385 186.1924585 282.82571777 185.26650879 282.5625 184.3125 C282.04521099 182.65301881 281.52189412 180.99540306 280.9921875 179.33984375 C272.60583787 152.22582426 272.60583787 152.22582426 276.5625 144.3125 C276.27222214 142.197172 276.27222214 142.197172 275.6875 139.8125 C273.37564048 129.78358828 273.40658388 119.68103994 273.4375 109.4375 C273.43363281 108.13296875 273.42976563 106.8284375 273.42578125 105.484375 C273.42771484 103.60878906 273.42771484 103.60878906 273.4296875 101.6953125 C273.43081543 100.56496582 273.43194336 99.43461914 273.43310547 98.27001953 C273.54280559 95.7626474 273.82977191 93.69841401 274.5625 91.3125 C273.87800781 91.05210937 273.19351562 90.79171875 272.48828125 90.5234375 C269.79498698 89.40872292 267.21035255 88.15483925 264.60546875 86.84985352 C247.08815744 78.23640715 226.62051567 74.41311425 207.5625 80.3125 C200.93123635 82.895046 194.69407504 86.23337632 188.51171875 89.73828125 C185.5625 91.3125 185.5625 91.3125 183.5625 91.3125 C183.80226563 92.71242188 183.80226563 92.71242188 184.046875 94.140625 C185.8824944 107.12014656 185.1866966 120.85024682 182.62988281 133.66894531 C181.81540899 137.87673761 181.53049266 141.73879835 181.63671875 146.03125 C181.72155481 152.82404075 180.43209983 159.03781326 178.875 165.625 C178.60534424 166.8011084 178.33568848 167.9772168 178.05786133 169.18896484 C172.65078702 192.22421298 172.65078702 192.22421298 169.5625 195.3125 C167.89632885 195.35313832 166.22861905 195.355221 164.5625 195.3125 C164.2325 196.446875 163.9025 197.58125 163.5625 198.75 C150.31158899 237.83410909 120.55293566 273.51124904 83.70898438 292.265625 C76.80624996 295.63219975 69.72384389 298.5466529 62.5625 301.3125 C61.91458496 301.56515625 61.26666992 301.8178125 60.59912109 302.078125 C42.94104523 308.83540091 23.9402996 311.35820843 5.12109375 311.5859375 C3.68428253 311.60472961 3.68428253 311.60472961 2.21844482 311.62390137 C-18.1718408 311.8392612 -37.66979333 311.93450832 -57.4375 306.3125 C-58.65179688 305.99152344 -58.65179688 305.99152344 -59.890625 305.6640625 C-96.78284186 295.76913016 -127.17844621 269.46061463 -146.07421875 236.8359375 C-155.97015589 219.12316787 -162.15132247 200.0832779 -166.4375 180.3125 C-166.6142627 179.49910156 -166.79102539 178.68570313 -166.97314453 177.84765625 C-168.15631879 172.18947353 -169.01990718 166.56710347 -169.5625 160.8125 C-169.64741699 159.91192871 -169.73233398 159.01135742 -169.81982422 158.08349609 C-171.00933735 143.54367259 -170.60437739 128.8873149 -170.4375 114.3125 C-171.09347168 114.32821045 -171.74944336 114.3439209 -172.42529297 114.36010742 C-175.38760816 114.42233652 -178.3497861 114.46145168 -181.3125 114.5 C-182.34503906 114.52513672 -183.37757813 114.55027344 -184.44140625 114.57617188 C-185.92060547 114.59067383 -185.92060547 114.59067383 -187.4296875 114.60546875 C-188.34089355 114.6211792 -189.25209961 114.63688965 -190.19091797 114.65307617 C-190.93229004 114.54068604 -191.67366211 114.4282959 -192.4375 114.3125 C-194.52690868 111.17838698 -194.71114412 110.33799528 -194.6875 106.75 C-194.69265625 105.96496094 -194.6978125 105.17992187 -194.703125 104.37109375 C-194.4375 102.3125 -194.4375 102.3125 -192.4375 100.3125 C-190.09912109 100.08544922 -190.09912109 100.08544922 -187.2109375 100.1171875 C-186.1796875 100.12363281 -185.1484375 100.13007813 -184.0859375 100.13671875 C-182.46558594 100.16185547 -182.46558594 100.16185547 -180.8125 100.1875 C-179.72453125 100.19652344 -178.6365625 100.20554687 -177.515625 100.21484375 C-174.82269848 100.23846591 -172.13020745 100.27140444 -169.4375 100.3125 C-169.38343994 99.60762451 -169.32937988 98.90274902 -169.27368164 98.17651367 C-168.01753307 82.99087314 -163.83855087 70.54976645 -156.4375 57.3125 C-155.65439453 55.84876953 -155.65439453 55.84876953 -154.85546875 54.35546875 C-140.90363438 30.23115768 -114.85348649 17.36563562 -88.97851562 10.25561523 C-59.63445545 2.4722822 -30.28168488 -0.09058678 0 0 Z " fill="#394348" transform="translate(412.4375,382.6875)"/>
<path d="M0 0 C1.23207184 0.00149048 2.46414368 0.00298096 3.73355103 0.0045166 C28.56246851 0.0584982 52.65997467 1.49390569 76.98779297 6.76660156 C79.72651227 7.34727446 82.47245626 7.87498977 85.22265625 8.3984375 C104.62363143 12.19633128 122.14332222 19.04855255 139.5625 28.3125 C137.73919265 31.46382823 135.86144848 34.35286483 133.5 37.125 C132.74009766 38.03185547 132.74009766 38.03185547 131.96484375 38.95703125 C130.5625 40.3125 130.5625 40.3125 128.5625 40.3125 C128.30645398 40.89372431 128.05040796 41.47494862 127.78660297 42.07378578 C126.44202616 44.53282991 124.9617245 46.15668114 122.97685242 48.13192749 C122.23246918 48.8776149 121.48808594 49.62330231 120.72114563 50.3915863 C119.4953907 51.60419884 119.4953907 51.60419884 118.24487305 52.84130859 C116.95438049 54.12982979 116.95438049 54.12982979 115.63781738 55.44438171 C113.76789586 57.31003859 111.89626463 59.17376754 110.02142906 61.03446579 C107.05339097 63.98019726 104.09249393 66.9330374 101.13252258 69.88687134 C96.44616981 74.56184584 91.75517038 79.23212559 87.06212026 83.90037596 C78.6678295 92.25037442 70.27903143 100.60588162 61.89553481 108.96671736 C58.95581533 111.89806013 56.01331105 114.82656957 53.06849134 117.75278831 C50.79984121 120.00822876 48.53437576 122.26686525 46.26831055 124.52490234 C45.05166466 125.73144218 45.05166466 125.73144218 43.81044006 126.96235657 C39.83313361 130.93165573 36.09065799 134.93993495 32.5625 139.3125 C29.06408118 143.00002254 25.29902921 146.30556776 21.46484375 149.6328125 C19.05453577 151.76101051 16.808571 154.01164678 14.5625 156.3125 C13.8715625 156.993125 13.180625 157.67375 12.46875 158.375 C8.42286518 162.36693969 4.54561111 166.3987614 0.89453125 170.75390625 C-1.7795 173.88275806 -4.6140599 176.67908454 -7.875 179.1875 C-10.59587853 181.44383829 -12.70586188 183.87203426 -14.9609375 186.578125 C-16.98909704 188.96040763 -19.19695865 191.13092026 -21.4375 193.3125 C-22.159375 194.075625 -22.88125 194.83875 -23.625 195.625 C-25.4375 197.3125 -25.4375 197.3125 -27.4375 197.3125 C-27.6953125 197.89497498 -27.953125 198.47744995 -28.21875 199.07757568 C-29.5414569 201.50313451 -30.98878454 203.11764441 -32.9375 205.07128906 C-33.65164063 205.79173401 -34.36578125 206.51217896 -35.1015625 207.25445557 C-35.87242187 208.02126648 -36.64328125 208.78807739 -37.4375 209.578125 C-38.22898437 210.37152283 -39.02046875 211.16492065 -39.8359375 211.98236084 C-41.50795737 213.65574054 -43.18250097 215.32660181 -44.859375 216.99511719 C-47.43462398 219.55963597 -49.99901052 222.13466989 -52.5625 224.7109375 C-54.18685884 226.33397527 -55.81183769 227.95639281 -57.4375 229.578125 C-58.20835937 230.35303284 -58.97921875 231.12794067 -59.7734375 231.92633057 C-60.84464844 232.98808502 -60.84464844 232.98808502 -61.9375 234.07128906 C-62.5665625 234.69876038 -63.195625 235.32623169 -63.84375 235.97271729 C-65.4375 237.3125 -65.4375 237.3125 -67.4375 237.3125 C-67.685 237.89 -67.9325 238.4675 -68.1875 239.0625 C-69.62049988 241.64189979 -71.22174676 243.37371592 -73.4375 245.3125 C-74.0975 245.3125 -74.7575 245.3125 -75.4375 245.3125 C-75.664375 245.89 -75.89125 246.4675 -76.125 247.0625 C-77.78476345 249.90780878 -79.85816667 251.24903334 -82.4375 253.3125 C-83.51195809 254.49684388 -84.56324853 255.70239508 -85.59765625 256.921875 C-89.462246 261.3897845 -93.52687848 265.62082906 -97.6875 269.8125 C-98.39390625 270.53953125 -99.1003125 271.2665625 -99.828125 272.015625 C-100.50875 272.70140625 -101.189375 273.3871875 -101.890625 274.09375 C-102.50067383 274.71314453 -103.11072266 275.33253906 -103.73925781 275.97070312 C-105.4375 277.3125 -105.4375 277.3125 -108.4375 277.3125 C-108.4375 276.6525 -108.4375 275.9925 -108.4375 275.3125 C-109.7575 274.9825 -111.0775 274.6525 -112.4375 274.3125 C-112.4375 274.9725 -112.4375 275.6325 -112.4375 276.3125 C-133.06882675 267.84587063 -147.48266172 236.19318147 -155.59375 217 C-158.84398961 208.96206303 -161.23618719 200.6896748 -163.4375 192.3125 C-163.67098145 191.43045898 -163.90446289 190.54841797 -164.14501953 189.63964844 C-170.63057322 164.62587292 -170.7312352 139.9668807 -170.4375 114.3125 C-171.09347168 114.32821045 -171.74944336 114.3439209 -172.42529297 114.36010742 C-175.38760816 114.42233652 -178.3497861 114.46145168 -181.3125 114.5 C-182.34503906 114.52513672 -183.37757813 114.55027344 -184.44140625 114.57617188 C-185.92060547 114.59067383 -185.92060547 114.59067383 -187.4296875 114.60546875 C-188.34089355 114.6211792 -189.25209961 114.63688965 -190.19091797 114.65307617 C-190.93229004 114.54068604 -191.67366211 114.4282959 -192.4375 114.3125 C-194.52690868 111.17838698 -194.71114412 110.33799528 -194.6875 106.75 C-194.69265625 105.96496094 -194.6978125 105.17992187 -194.703125 104.37109375 C-194.4375 102.3125 -194.4375 102.3125 -192.4375 100.3125 C-190.09912109 100.08544922 -190.09912109 100.08544922 -187.2109375 100.1171875 C-186.1796875 100.12363281 -185.1484375 100.13007813 -184.0859375 100.13671875 C-182.46558594 100.16185547 -182.46558594 100.16185547 -180.8125 100.1875 C-179.72453125 100.19652344 -178.6365625 100.20554687 -177.515625 100.21484375 C-174.82269848 100.23846591 -172.13020745 100.27140444 -169.4375 100.3125 C-169.38343994 99.60762451 -169.32937988 98.90274902 -169.27368164 98.17651367 C-168.01753307 82.99087314 -163.83855087 70.54976645 -156.4375 57.3125 C-155.65439453 55.84876953 -155.65439453 55.84876953 -154.85546875 54.35546875 C-140.90363438 30.23115768 -114.85348649 17.36563562 -88.97851562 10.25561523 C-59.63445545 2.4722822 -30.28168488 -0.09058678 0 0 Z " fill="#394348" transform="translate(412.4375,382.6875)"/>
<path d="M0 0 C3.79012454 1.24032582 5.70427864 2.60696581 8.55078125 5.37109375 C9.40542969 6.18964844 10.26007813 7.00820313 11.140625 7.8515625 C11.89472656 8.60050781 12.64882813 9.34945313 13.42578125 10.12109375 C14.31265625 10.96671875 15.19953125 11.81234375 16.11328125 12.68359375 C16.87640625 13.48796875 17.63953125 14.29234375 18.42578125 15.12109375 C18.93238281 15.62125 19.43898438 16.12140625 19.9609375 16.63671875 C34.51253607 31.88440746 39.85765054 51.68858463 41.42578125 72.12109375 C42.10680908 72.1053833 42.78783691 72.08967285 43.48950195 72.07348633 C46.57234406 72.01116153 49.65505369 71.97211117 52.73828125 71.93359375 C53.81013672 71.90845703 54.88199219 71.88332031 55.98632812 71.85742188 C57.52836914 71.84291992 57.52836914 71.84291992 59.1015625 71.828125 C60.04942627 71.81241455 60.99729004 71.7967041 61.97387695 71.78051758 C64.42578125 72.12109375 64.42578125 72.12109375 66.23364258 73.51831055 C67.71675322 75.51229403 67.82881231 76.65436006 67.80078125 79.12109375 C67.80851562 79.80171875 67.81625 80.48234375 67.82421875 81.18359375 C67.29755164 83.74464168 66.48091548 84.5206674 64.42578125 86.12109375 C62.06567383 86.46166992 62.06567383 86.46166992 59.3203125 86.4140625 C58.33740234 86.40439453 57.35449219 86.39472656 56.34179688 86.38476562 C55.31763672 86.35962891 54.29347656 86.33449219 53.23828125 86.30859375 C51.68463867 86.28829102 51.68463867 86.28829102 50.09960938 86.26757812 C47.54114426 86.23220764 44.98372345 86.18284919 42.42578125 86.12109375 C42.4414917 87.28342529 42.45720215 88.44575684 42.47338867 89.64331055 C43.0133676 133.43204011 43.0133676 133.43204011 39.42578125 149.12109375 C39.27592773 149.78383301 39.12607422 150.44657227 38.97167969 151.12939453 C37.94606243 155.50949879 36.70575821 159.8098356 35.42578125 164.12109375 C35.07248011 165.42886983 34.7223081 166.7374946 34.375 168.046875 C24.06487902 206.12480088 2.76591267 240.48224427 -31.57421875 261.12109375 C-32.24001953 261.52408691 -32.90582031 261.92708008 -33.59179688 262.34228516 C-61.87079132 279.12868537 -94.36482274 283.56292337 -126.69921875 283.49609375 C-128.18807083 283.49527802 -128.18807083 283.49527802 -129.70700073 283.4944458 C-144.37268892 283.45750713 -158.33207875 282.92788219 -172.57421875 279.12109375 C-173.84362305 278.79963379 -173.84362305 278.79963379 -175.13867188 278.47167969 C-199.74914769 272.1393213 -221.51325421 260.54151908 -241.57421875 245.12109375 C-241.25863382 239.87007729 -238.19128572 237.23668512 -234.59765625 233.7890625 C-233.99418365 233.19362137 -233.39071106 232.59818024 -232.76895142 231.98469543 C-230.83827892 230.08297011 -228.89451712 228.19534524 -226.94921875 226.30859375 C-225.0279165 224.43011075 -223.10954271 222.54873469 -221.1937561 220.66462708 C-220.00315683 219.49533314 -218.80904893 218.32959592 -217.61068726 217.16825867 C-214.75920846 214.38328223 -212.04876171 211.55071224 -209.46191406 208.51757812 C-204.16544601 202.3876499 -198.33512349 196.75907198 -192.59765625 191.046875 C-191.34146496 189.79255327 -190.08549759 188.53800726 -188.82974243 187.2832489 C-185.54270212 184.00000184 -182.25267179 180.71976738 -178.9619751 177.44018555 C-175.61736709 174.1058212 -172.27559572 170.76861662 -168.93359375 167.43164062 C-163.53625324 162.04305528 -158.13723144 156.65616174 -152.7358551 151.2716217 C-151.34839015 149.88836595 -149.96129661 148.50473767 -148.57421875 147.12109375 C-147.68344635 146.24225021 -146.79267395 145.36340668 -145.87490845 144.45793152 C-143.45758685 142.07496523 -143.45758685 142.07496523 -141.07421875 139.05859375 C-138.57421875 136.12109375 -138.57421875 136.12109375 -136.19921875 134.24609375 C-133.97661857 132.44684598 -132.39122262 130.81543059 -130.56698608 128.6512146 C-125.98165149 123.35759497 -121.02798828 118.45019338 -116.06494141 113.51416016 C-115.02098585 112.47212772 -113.97726065 111.42986445 -112.93374634 110.38739014 C-110.70190258 108.15868676 -108.46852041 105.93154113 -106.23390579 103.705616 C-102.70177676 100.18708482 -99.17353295 96.66467466 -95.64584351 93.14169312 C-88.16660566 85.67351437 -80.68311959 78.20959923 -73.19921875 70.74609375 C-65.09773555 62.66664459 -56.9969998 54.58645398 -48.90110815 46.50140131 C-45.39204255 42.99732351 -41.88055226 39.49569915 -38.36719823 35.99592137 C-36.18918296 33.82534423 -34.01322246 31.65271631 -31.83782578 29.47951508 C-30.82643595 28.47000303 -29.81417924 27.46135865 -28.80101013 26.45363235 C-27.42223179 25.08203101 -26.04678872 23.70707933 -24.67153931 22.3319397 C-23.89987238 21.56249338 -23.12820545 20.79304707 -22.33315468 20.00028419 C-20.511396 18.23271035 -20.511396 18.23271035 -19.57421875 16.12109375 C-18.91421875 16.12109375 -18.25421875 16.12109375 -17.57421875 16.12109375 C-17.36152344 15.59128906 -17.14882813 15.06148438 -16.9296875 14.515625 C-15.04064489 11.17849786 -12.52996741 8.54937926 -9.88671875 5.80859375 C-9.38205078 5.24591797 -8.87738281 4.68324219 -8.35742188 4.10351562 C-5.45238602 1.10299186 -4.32099683 0.14639443 0 0 Z " fill="#222B30" transform="translate(996.57421875,410.87890625)"/>
<path d="M0 0 C6.45465652 0.8225403 10.20447274 4.89754894 15 9 C15.83144531 9.67289062 16.66289063 10.34578125 17.51953125 11.0390625 C28.54970425 20.31483003 36.54948361 32.28662022 41 46 C41 47.32 41 48.64 41 50 C41.51046875 49.70867187 42.0209375 49.41734375 42.546875 49.1171875 C45.0196709 47.72295151 47.50799182 46.35959991 50 45 C51.35738281 44.24396484 51.35738281 44.24396484 52.7421875 43.47265625 C70.91139858 33.79718206 93.51131619 31.12210381 113.4375 37.125 C120.26340454 39.38627681 126.75475879 42.45068589 133 46 C134.39992188 46.76957031 134.39992188 46.76957031 135.828125 47.5546875 C136.54484375 48.03164063 137.2615625 48.50859375 138 49 C138 49.66 138 50.32 138 51 C138.66 51 139.32 51 140 51 C140.04254356 52.99954746 140.04080783 55.00041636 140 57 C139.67 57.33 139.34 57.66 139 58 C138.84344973 59.48638992 138.74933057 60.97949127 138.68359375 62.47265625 C138.64169922 63.37177734 138.59980469 64.27089844 138.55664062 65.19726562 C138.49766602 66.61555664 138.49766602 66.61555664 138.4375 68.0625 C138.39431641 69.01189453 138.35113281 69.96128906 138.30664062 70.93945312 C138.20020724 73.29281353 138.09818992 75.64628354 138 78 C137.67 78 137.34 78 137 78 C136.67 72.72 136.34 67.44 136 62 C134.35 61.34 132.7 60.68 131 60 C129.34615668 59.18214325 127.69255717 58.36375865 126.04296875 57.53735352 C108.52565744 48.92390715 88.05801567 45.10061425 69 51 C62.36873635 53.582546 56.13157504 56.92087632 49.94921875 60.42578125 C47 62 47 62 45 62 C45.23976563 63.39992188 45.23976563 63.39992188 45.484375 64.828125 C47.3199944 77.80764656 46.6241966 91.53774682 44.06738281 104.35644531 C43.25290899 108.56423761 42.96799266 112.42629835 43.07421875 116.71875 C43.15905481 123.51154075 41.86959983 129.72531326 40.3125 136.3125 C40.04284424 137.4886084 39.77318848 138.6647168 39.49536133 139.87646484 C34.08828702 162.91171298 34.08828702 162.91171298 31 166 C29.33382885 166.04063832 27.66611905 166.042721 26 166 C25.67 167.134375 25.34 168.26875 25 169.4375 C11.74908899 208.52160909 -18.00956434 244.19874904 -54.85351562 262.953125 C-61.75625004 266.31969975 -68.83865611 269.2341529 -76 272 C-76.64791504 272.25265625 -77.29583008 272.5053125 -77.96337891 272.765625 C-95.62145477 279.52290091 -114.6222004 282.04570843 -133.44140625 282.2734375 C-134.87821747 282.29222961 -134.87821747 282.29222961 -136.34405518 282.31140137 C-156.7343408 282.5267612 -176.23229333 282.62200832 -196 277 C-196.80953125 276.78601563 -197.6190625 276.57203125 -198.453125 276.3515625 C-216.91477106 271.39992895 -237.34385432 261.65614568 -251 248 C-251 247.01 -251 246.02 -251 245 C-249.68 245.33 -248.36 245.66 -247 246 C-247 246.66 -247 247.32 -247 248 C-243.31372337 245.95341942 -240.4877831 243.72505513 -237.53125 240.7265625 C-236.71269531 239.9015625 -235.89414062 239.0765625 -235.05078125 238.2265625 C-233.78814453 236.93878906 -233.78814453 236.93878906 -232.5 235.625 C-231.65824219 234.77421875 -230.81648438 233.9234375 -229.94921875 233.046875 C-228.33242384 231.41225715 -226.71788887 229.77539996 -225.10595703 228.13598633 C-223.4228977 226.42892789 -221.72888894 224.73534325 -220.0234375 223.05078125 C-217.93278128 221.0157447 -217.93278128 221.0157447 -216.125 218.5625 C-213.91098741 215.89266129 -211.55604562 213.81143401 -208.87890625 211.625 C-206.4638413 209.53629518 -204.24982582 207.26287366 -202 205 C-200.76662285 203.76592933 -199.53286794 202.53223615 -198.29882812 201.29882812 C-197.61461792 200.61461792 -196.93040771 199.93040771 -196.22546387 199.22546387 C-187.71736654 190.71736654 -179.20926921 182.20926921 -170.70117188 173.70117188 C-170.06115234 173.06042725 -169.42113281 172.41968262 -168.76171875 171.75952148 C-167.2311702 170.23088188 -165.69336867 168.70951099 -164.15429688 167.18945312 C-161.87097956 164.93810304 -161.87097956 164.93810304 -159.5625 162 C-156.93248768 158.92096119 -154.1374966 156.54921599 -151 154 C-148.31279024 151.44387364 -145.90251536 148.8800189 -143.5625 146 C-141.38462562 143.45029341 -139.20859313 141.48688609 -136.59765625 139.41015625 C-134.72913549 137.76092399 -133.17430681 135.96277335 -131.5625 134.0625 C-128.78994203 130.79922381 -125.86021097 128.08444955 -122.55859375 125.37109375 C-120.40853885 123.47969207 -118.77077452 121.24298106 -117 119 C-115.33333333 117.66666667 -113.66666667 116.33333333 -112 115 C-111.34 114.175 -110.68 113.35 -110 112.5 C-108 110 -108 110 -105.6875 108.1875 C-103.41024289 106.33391863 -101.74885241 104.62586919 -99.86837769 102.4057312 C-95.9137497 97.83874633 -91.70310605 93.57662986 -87.41845703 89.32080078 C-86.17575294 88.08028709 -86.17575294 88.08028709 -84.90794373 86.81471252 C-83.12268058 85.03323319 -81.33626388 83.25290925 -79.54880142 81.47363663 C-76.72276232 78.66042137 -73.8998334 75.84410712 -71.07785034 73.02682495 C-65.09654457 67.05656155 -59.1109799 61.09057638 -53.125 55.125 C-46.64027941 48.66232737 -40.1563195 42.19890154 -33.67719734 35.7306155 C-30.41871408 32.47791855 -27.15635535 29.22913809 -23.89334106 25.98098755 C-22.19713936 24.28841595 -20.50107654 22.59570516 -18.80517578 20.90283203 C-17.6348455 19.74025124 -17.6348455 19.74025124 -16.44087219 18.55418396 C-15.73441055 17.84779282 -15.02794891 17.14140167 -14.30007935 16.41360474 C-13.68327364 15.79901964 -13.06646793 15.18443455 -12.43097115 14.55122566 C-10.90461187 13.04067975 -10.90461187 13.04067975 -10 11 C-9.34 11 -8.68 11 -8 11 C-7.73445312 10.41734375 -7.46890625 9.8346875 -7.1953125 9.234375 C-5.96697004 6.93825772 -4.59685061 5.19643982 -2.875 3.25 C-2.33617187 2.63640625 -1.79734375 2.0228125 -1.2421875 1.390625 C-0.83226562 0.93171875 -0.42234375 0.4728125 0 0 Z " fill="#222B2F" transform="translate(551,412)"/>
<path d="M0 0 C44.38461538 0 44.38461538 0 55.625 10.4375 C64.96939946 20.51961521 67.35167314 29.77322724 67.1484375 43.34375 C66.76726408 52.73265308 63.03482809 62.52937075 56.62109375 69.5625 C40.28309773 84.05016876 21.64489635 81 0 81 C0 54.27 0 27.54 0 0 Z " fill="#2D3536" transform="translate(538,866)"/>
<path d="M0 0 C40.87272727 0 40.87272727 0 48.75390625 6.1484375 C54.80550904 13.59857484 56.94132404 19.36263487 56 29 C54.70451785 35.06372739 51.64541356 39.9132776 47 44 C40.66371681 48 40.66371681 48 37 48 C37.6501709 49.12643921 37.6501709 49.12643921 38.31347656 50.27563477 C39.93875866 53.09164665 41.5639058 55.90773635 43.18896484 58.72387695 C43.88910701 59.93712377 44.58930122 61.15034056 45.28955078 62.36352539 C46.30254961 64.11857115 47.31535425 65.87372886 48.328125 67.62890625 C48.9355957 68.68150635 49.54306641 69.73410645 50.16894531 70.81860352 C52.11985945 74.2082518 54.05960946 77.60431656 56 81 C50.39 81 44.78 81 39 81 C37.05981073 77.55020507 35.12050314 74.099936 33.18334961 70.6484375 C32.20327999 68.90310147 31.22176886 67.15857515 30.24023438 65.4140625 C29.61826172 64.30546875 28.99628906 63.196875 28.35546875 62.0546875 C27.78465576 61.03874512 27.21384277 60.02280273 26.62573242 58.97607422 C25 56 25 56 23.7902832 52.68408203 C23.19948975 51.79833496 22.60869629 50.91258789 22 50 C19.36 49.67 16.72 49.34 14 49 C14 59.56 14 70.12 14 81 C9.38 81 4.76 81 0 81 C0 54.27 0 27.54 0 0 Z " fill="#2D3536" transform="translate(236,866)"/>
<path d="M0 0 C41.15384615 0 41.15384615 0 49.9375 7.25 C55.29108125 13.20964705 56.59288909 19.34497583 56.3515625 27.25390625 C55.46729257 34.1610369 52.41984362 39.61250754 47 44 C43.20549593 46.2457269 41.46379252 47 37 47 C37.39791748 47.71019287 37.79583496 48.42038574 38.20581055 49.15209961 C39.70626383 51.83025072 41.2065719 54.5084831 42.70678711 57.18676758 C43.66574368 58.89866143 44.62486215 60.61046458 45.58398438 62.32226562 C49.06763632 68.54176988 52.54249816 74.76591924 56 81 C50.39 81 44.78 81 39 81 C37.03622095 77.42879345 35.07701878 73.85558677 33.12841797 70.27612305 C32.46556295 69.06153395 31.80024197 67.84828702 31.13232422 66.63647461 C30.16752535 64.8849825 29.2125848 63.12807164 28.2578125 61.37109375 C27.6817627 60.31849365 27.10571289 59.26589355 26.51220703 58.18139648 C24.89986202 54.7893287 23.93163231 51.62856789 23 48 C20.03 48 17.06 48 14 48 C14 58.89 14 69.78 14 81 C9.38 81 4.76 81 0 81 C0 54.27 0 27.54 0 0 Z " fill="#2A3234" transform="translate(760,866)"/>
<path d="M0 0 C4.62 0 9.24 0 14 0 C14 27.06 14 54.12 14 82 C2 82 2 82 -0.54614258 80.1628418 C-1.05298584 79.28797119 -1.5598291 78.41310059 -2.08203125 77.51171875 C-2.7054541 76.50544434 -3.32887695 75.49916992 -3.97119141 74.46240234 C-4.29331604 73.90615173 -4.61544067 73.34990112 -4.94732666 72.77679443 C-6.47664167 70.19548236 -8.16153499 67.72624092 -9.83639526 65.23782349 C-11.68242375 62.48699012 -13.49097997 59.71233425 -15.30102539 56.93774414 C-16.69328681 54.80362975 -18.08945246 52.672112 -19.48632812 50.54101562 C-20.39085047 49.15900171 -21.29515499 47.7768452 -22.19921875 46.39453125 C-22.60766525 45.77036819 -23.01611176 45.14620514 -23.43693542 44.50312805 C-26.35041132 40.03536172 -29.17173282 35.52522749 -32 31 C-32.33 47.83 -32.66 64.66 -33 82 C-37.62 82 -42.24 82 -47 82 C-47 55.27 -47 28.54 -47 1 C-43.04 1 -39.08 1 -35 1 C-31.97557695 4.4501624 -30.13364834 7.07494983 -28 11 C-26.92438493 12.64319264 -25.83348026 14.27648831 -24.72680664 15.89892578 C-23.6197969 17.58009447 -22.51424935 19.26222689 -21.41015625 20.9453125 C-20.88643433 21.74122803 -20.3627124 22.53714355 -19.82312012 23.35717773 C-17.90130985 26.27873096 -15.98204588 29.20195851 -14.0625 32.125 C-7.5965625 41.963125 -7.5965625 41.963125 -1 52 C-0.67 34.84 -0.34 17.68 0 0 Z " fill="#2E3436" transform="translate(480,865)"/>
<path d="M0 0 C5.28 0 10.56 0 16 0 C16.6084375 1.60617187 17.216875 3.21234375 17.84375 4.8671875 C20.58147725 12.09150897 23.32259411 19.31454067 26.06494141 26.53710938 C26.71054556 28.23759363 27.35604696 29.93811691 28.00146484 31.63867188 C30.14200391 37.2785357 32.28424632 42.91774812 34.4284668 48.55621338 C35.14008672 50.4282083 35.85119104 52.30039931 36.56176758 54.17279053 C37.5710243 56.83187568 38.58217507 59.49023353 39.59375 62.1484375 C39.89337646 62.93907593 40.19300293 63.72971436 40.50170898 64.54431152 C41.82848477 68.02555061 43.19207354 71.46434563 44.71289062 74.86572266 C46 78 46 78 46 81 C41.38 81 36.76 81 32 81 C29.23351625 75.65782449 27.1453176 70.72084693 25 65 C7.675 64.505 7.675 64.505 -10 64 C-10.33 65.98 -10.66 67.96 -11 70 C-12.20918245 73.7198143 -13.61606324 77.33926405 -15 81 C-20.28 81 -25.56 81 -31 81 C-27.80334775 72.56765444 -24.60544746 64.13578471 -21.40576172 55.70458984 C-20.56596415 53.49147968 -19.72637262 51.27829128 -18.88720703 49.06494141 C-12.67348924 32.67824036 -6.33713985 16.3392589 0 0 Z " fill="#2D3537" transform="translate(879,866)"/>
<path d="M0 0 C1.39456452 0.00667256 2.78911118 0.01863093 4.18359375 0.03515625 C5.2499707 0.04192383 5.2499707 0.04192383 6.33789062 0.04882812 C8.09899388 0.06064761 9.86005411 0.07858362 11.62109375 0.09765625 C14.43069113 7.1688111 17.2380153 14.24086566 20.04394531 21.31347656 C20.99364859 23.70657553 21.9438245 26.099487 22.89453125 28.4921875 C28.08358686 41.55277662 33.24283898 54.62456084 38.31640625 67.73046875 C38.96728714 69.40216629 38.96728714 69.40216629 39.63131714 71.1076355 C40.22204514 72.6401445 40.22204514 72.6401445 40.82470703 74.20361328 C41.3469133 75.55327682 41.3469133 75.55327682 41.87966919 76.9302063 C42.62109375 79.09765625 42.62109375 79.09765625 42.62109375 81.09765625 C37.67109375 81.09765625 32.72109375 81.09765625 27.62109375 81.09765625 C25.64109375 75.81765625 23.66109375 70.53765625 21.62109375 65.09765625 C4.29609375 64.60265625 4.29609375 64.60265625 -13.37890625 64.09765625 C-15.07617875 69.75523126 -16.75621599 75.41824033 -18.37890625 81.09765625 C-23.65890625 81.09765625 -28.93890625 81.09765625 -34.37890625 81.09765625 C-31.75027997 72.8956196 -28.66296199 64.88115842 -25.56640625 56.84765625 C-24.40761779 53.83380744 -23.25041904 50.81935029 -22.09375 47.8046875 C-21.79441559 47.02485001 -21.49508118 46.24501251 -21.18667603 45.44154358 C-18.91899118 39.52601539 -16.6770894 33.6010341 -14.4453125 27.671875 C-13.96429329 26.39502335 -13.96429329 26.39502335 -13.47355652 25.09237671 C-12.21254213 21.74445412 -10.95173417 18.39646728 -9.69613647 15.04650879 C-8.82707738 12.72804666 -7.95483795 10.41080335 -7.08203125 8.09375 C-6.82220963 7.39746994 -6.562388 6.70118988 -6.29469299 5.98381042 C-4.0796136 0.11790791 -4.0796136 0.11790791 0 0 Z " fill="#2E3637" transform="translate(355.37890625,865.90234375)"/>
<path d="M0 0 C16.5 0 33 0 50 0 C50 4.29 50 8.58 50 13 C38.12 13 26.24 13 14 13 C14 19.6 14 26.2 14 33 C23.9 33 33.8 33 44 33 C44 37.29 44 41.58 44 46 C34.1 46 24.2 46 14 46 C14 52.93 14 59.86 14 67 C26.21 67 38.42 67 51 67 C51 71.62 51 76.24 51 81 C34.17 81 17.34 81 0 81 C0 54.27 0 27.54 0 0 Z " fill="#32393A" transform="translate(1065,866)"/>
<path d="M0 0 C3.45694448 2.86377873 6.53843454 6.07234254 9.1171875 9.75390625 C9.1171875 10.41390625 9.1171875 11.07390625 9.1171875 11.75390625 C7.35346932 12.78698396 5.58093717 13.80502674 3.8046875 14.81640625 C2.81855469 15.38488281 1.83242188 15.95335937 0.81640625 16.5390625 C-1.8828125 17.75390625 -1.8828125 17.75390625 -4.8828125 16.75390625 C-5.6046875 15.99078125 -6.3265625 15.22765625 -7.0703125 14.44140625 C-13.45738518 8.33820347 -19.27825995 7.15491353 -28.01660156 7.28588867 C-36.00848373 7.64310443 -40.26392253 9.80319115 -45.6953125 15.50390625 C-51.05041632 22.15499411 -52.47122918 28.14026579 -52.234375 36.65625 C-51.36391805 44.32594289 -48.64796598 51.49007046 -42.8828125 56.75390625 C-35.45637768 62.07264814 -27.84482849 63.09245706 -18.8828125 61.75390625 C-15.54835779 60.4674216 -12.81051074 58.77512052 -9.8828125 56.75390625 C-9.16867187 56.41359375 -8.45453125 56.07328125 -7.71875 55.72265625 C-5.37250329 54.48463671 -4.84918984 53.16984959 -3.8828125 50.75390625 C0.78824542 52.31092556 4.20424435 54.83837998 8.1171875 57.75390625 C5.45233239 64.12638585 -0.63582511 69.07332768 -6.66015625 72.19140625 C-9.04941825 73.14570767 -11.42500274 73.99626948 -13.8828125 74.75390625 C-14.8728125 75.08390625 -15.8628125 75.41390625 -16.8828125 75.75390625 C-26.93394844 76.63558484 -38.08503203 77.28534658 -46.8828125 71.75390625 C-47.65625 71.26792969 -48.4296875 70.78195312 -49.2265625 70.28125 C-59.15226367 63.28363067 -64.70879017 53.62151048 -66.8828125 41.75390625 C-68.35004277 29.2016016 -66.40830365 18.97594697 -59.0703125 8.44140625 C-44.66646595 -9.23270138 -18.90758049 -13.42370928 0 0 Z " fill="#303738" transform="translate(710.8828125,871.24609375)"/>
<path d="M0 0 C5.28 0 10.56 0 16 0 C18.52729764 7.29558261 21.05414101 14.59132233 23.58056641 21.88720703 C24.43981694 24.36836993 25.29919087 26.8494901 26.15869141 29.33056641 C27.39518272 32.89995231 28.63122798 36.46949242 29.8671875 40.0390625 C30.25059296 41.14553131 30.63399841 42.25200012 31.02902222 43.39199829 C31.38924469 44.43262421 31.74946716 45.47325012 32.12060547 46.54541016 C32.43593231 47.4558609 32.75125916 48.36631165 33.07614136 49.30435181 C34.06765395 52.19740168 35.03666157 55.09745953 36 58 C38.85048426 51.8264941 41.31770781 45.59484716 43.56640625 39.1796875 C43.88657211 38.27678986 44.20673798 37.37389221 44.53660583 36.44363403 C45.5486247 33.58860764 46.55596517 30.73196393 47.5625 27.875 C48.57306041 25.01106165 49.58470658 22.14752364 50.59910583 19.28494263 C51.22698577 17.51271926 51.85265627 15.73971098 52.47572327 13.96578979 C54.15349497 9.22592514 55.9640403 4.59782733 58 0 C62.95 0 67.9 0 73 0 C70.51058447 8.97475634 67.22957856 17.61064717 63.93243408 26.31164551 C62.92496308 28.97058776 61.92159393 31.63104413 60.91943359 34.29199219 C59.57826264 37.85306155 58.23605178 41.41373564 56.89306641 44.97412109 C54.28526055 51.89257822 51.69916351 58.81896435 49.125 65.75 C48.71499756 66.84820068 48.30499512 67.94640137 47.88256836 69.07788086 C47.32581421 70.57847046 47.32581421 70.57847046 46.7578125 72.109375 C46.4395752 72.96499023 46.12133789 73.82060547 45.79345703 74.70214844 C45.08102398 76.76535454 44.52939367 78.8824253 44 81 C39.38 81 34.76 81 30 81 C23.16021067 65.11403769 17.27444912 48.8373143 11.67993164 32.47680664 C9.0411479 24.88100514 5.98649699 17.4676804 2.84375 10.06787109 C2.28880859 8.74843506 2.28880859 8.74843506 1.72265625 7.40234375 C1.39015869 6.62366943 1.05766113 5.84499512 0.71508789 5.04272461 C0 3 0 3 0 0 Z " fill="#2E3536" transform="translate(954,866)"/>
<path d="M0 0 C23.40850277 0 23.40850277 0 30.42578125 6.11328125 C37.2598017 14.07923056 39.60631538 19.95356954 39.34765625 30.55859375 C38.56539999 38.30205175 34.84966927 44.86988002 29 50 C19.0648575 56.20239446 13.21246926 55 0 55 C0 36.85 0 18.7 0 0 Z " fill="#FAFBFA" transform="translate(552,879)"/>
<path d="M0 0 C18.48 0 36.96 0 56 0 C56 4.62 56 9.24 56 14 C49.4 14 42.8 14 36 14 C36 36.44 36 58.88 36 82 C31.05 82 26.1 82 21 82 C21 59.56 21 37.12 21 14 C14.07 14 7.14 14 0 14 C0 9.38 0 4.76 0 0 Z " fill="#384041" transform="translate(143,866)"/>
<path d="M0 0 C0.93328125 0.51304687 1.8665625 1.02609375 2.828125 1.5546875 C3.90320313 2.27011719 3.90320313 2.27011719 5 3 C5 3.66 5 4.32 5 5 C5.66 5 6.32 5 7 5 C7.04254356 6.99954746 7.04080783 9.00041636 7 11 C6.505 11.495 6.505 11.495 6 12 C5.84344973 13.48638992 5.74933057 14.97949127 5.68359375 16.47265625 C5.64169922 17.37177734 5.59980469 18.27089844 5.55664062 19.19726562 C5.51732422 20.14279297 5.47800781 21.08832031 5.4375 22.0625 C5.37272461 23.4865918 5.37272461 23.4865918 5.30664062 24.93945312 C5.20020724 27.29281353 5.09818992 29.64628354 5 32 C4.67 32 4.34 32 4 32 C3.67 26.72 3.34 21.44 3 16 C1.35 15.34 -0.3 14.68 -2 14 C-3.65384332 13.18214325 -5.30744283 12.36375865 -6.95703125 11.53735352 C-24.4340475 2.94372066 -44.92412027 -0.92911947 -63.9375 5 C-71.87475768 8.10160857 -79.47499648 12.01501128 -87 16 C-87 15.34 -87 14.68 -87 14 C-87.66 14 -88.32 14 -89 14 C-89.66 10.7 -90.32 7.4 -91 4 C-62.6921179 -14.67115628 -29.84585933 -16.96208776 0 0 Z " fill="#273235" transform="translate(684,458)"/>
<path d="M0 0 C2.84625 -0.061875 5.6925 -0.12375 8.625 -0.1875 C9.51010254 -0.21481201 10.39520508 -0.24212402 11.30712891 -0.27026367 C16.29395621 -0.32245531 19.69566919 0.20480956 24 3 C26.55669154 6.02766104 27.8474933 8.08495982 28.5 12 C27.72163143 16.67021141 25.6107137 19.68045378 21.96875 22.6640625 C17.69080723 24.58913674 13.8134466 24.32099757 9.1875 24.1875 C6.155625 24.125625 3.12375 24.06375 0 24 C0 16.08 0 8.16 0 0 Z " fill="#F4F6F6" transform="translate(774,879)"/>
<path d="M0 0 C4.021875 -0.0928125 4.021875 -0.0928125 8.125 -0.1875 C8.95789551 -0.21481201 9.79079102 -0.24212402 10.64892578 -0.27026367 C16.63850728 -0.3367193 20.45529177 1.19191784 25.375 4.6875 C27.32108057 7.45692234 27.56818727 9.61235979 27.38671875 12.97265625 C26.57358839 17.23543054 24.24631027 19.99917509 20.9375 22.65625 C16.80516086 24.54657535 13.16568618 24.32427855 8.6875 24.1875 C5.820625 24.125625 2.95375 24.06375 0 24 C0 16.08 0 8.16 0 0 Z " fill="#F7F8F7" transform="translate(250,879)"/>
<path d="M0 0 C4.63201164 8.11869503 1.4094325 17.88261644 -0.75 26.375 C-1.00265625 27.42171875 -1.2553125 28.4684375 -1.515625 29.546875 C-2.8539388 34.9670459 -4.33298848 40.34160471 -5.96875 45.6796875 C-6.26716797 46.65921387 -6.56558594 47.63874023 -6.87304688 48.64794922 C-8 51 -8 51 -9.79882812 52.19189453 C-11.75 52.75 -11.75 52.75 -15 53 C-15.97371889 47.26208456 -15.9117236 43.18239521 -14.41796875 37.46484375 C-14.15660881 36.44131554 -14.15660881 36.44131554 -13.88996887 35.39710999 C-13.33576623 33.24020112 -12.76198176 31.08908537 -12.1875 28.9375 C-11.81316333 27.49186983 -11.44010594 26.04590776 -11.06835938 24.59960938 C-10.06737796 20.72705854 -9.04650805 16.86055069 -8 13 C-7.52300659 11.11003296 -7.52300659 11.11003296 -7.03637695 9.18188477 C-5.79300302 5.36447783 -4.24299951 4.24515351 -1 2 C-0.67 1.34 -0.34 0.68 0 0 Z " fill="#131C1D" transform="translate(591,526)"/>
<path d="M0 0 C2.39658866 2.13985581 3.51191591 3.81996769 4.46484375 6.87890625 C4.7057373 7.63107422 4.94663086 8.38324219 5.19482422 9.15820312 C5.43990723 9.95162109 5.68499023 10.74503906 5.9375 11.5625 C6.45724017 13.18956915 6.97936362 14.81587899 7.50390625 16.44140625 C7.75672363 17.22531738 8.00954102 18.00922852 8.27001953 18.81689453 C9.45674117 22.36594634 10.86688011 25.81025586 12.3359375 29.25 C13 31 13 31 13 33 C5.08 33 -2.84 33 -11 33 C-10.26190562 28.57143372 -9.52991776 25.34901128 -7.96875 21.26953125 C-7.57042969 20.21958984 -7.17210937 19.16964844 -6.76171875 18.08789062 C-6.34535156 17.00701172 -5.92898438 15.92613281 -5.5 14.8125 C-4.67676538 12.6524649 -3.85383456 10.49231399 -3.03125 8.33203125 C-2.66580078 7.38046143 -2.30035156 6.4288916 -1.92382812 5.44848633 C-1.24390428 3.64643657 -0.60907141 1.82721422 0 0 Z " fill="#EEF1F1" transform="translate(886,884)"/>
<path d="M0 0 C2.47092507 1.54729765 3.80360039 2.52156413 4.92553711 5.25463867 C5.1241333 6.1335376 5.32272949 7.01243652 5.52734375 7.91796875 C5.75993896 8.91417236 5.99253418 9.91037598 6.23217773 10.93676758 C6.46493408 12.00950928 6.69769043 13.08225098 6.9375 14.1875 C7.18765869 15.28924561 7.43781738 16.39099121 7.69555664 17.52612305 C8.48066792 21.01388137 9.24108164 24.50645875 10 28 C10.51025154 30.28389106 11.0206647 32.56774603 11.53125 34.8515625 C12.0020475 37.00476167 12.47087353 39.15839307 12.9375 41.3125 C13.16107178 42.32530029 13.38464355 43.33810059 13.61499023 44.3815918 C13.81294189 45.32429932 14.01089355 46.26700684 14.21484375 47.23828125 C14.47962524 48.4763855 14.47962524 48.4763855 14.74975586 49.73950195 C15.01284776 52.11605597 14.72906085 53.73955477 14 56 C11.1875 55.125 11.1875 55.125 8 53 C7.14233398 50.95874023 7.14233398 50.95874023 6.49609375 48.49609375 C6.25060791 47.59890625 6.00512207 46.70171875 5.75219727 45.77734375 C5.50397217 44.86082031 5.25574707 43.94429687 5 43 C4.48358562 41.34024643 3.96026408 39.68262446 3.4296875 38.02734375 C0.81237305 29.57039304 -1.48036642 21.37200809 -2 12.5 C-2.04141113 11.81284912 -2.08282227 11.12569824 -2.12548828 10.41772461 C-2.25084287 6.47793854 -1.7415041 3.53743021 0 0 Z " fill="#172123" transform="translate(690,524)"/>
<path d="M0 0 C2.14426879 2.14426879 2.64707384 3.3975741 3.62109375 6.21875 C3.91693359 7.06953125 4.21277344 7.9203125 4.51757812 8.796875 C4.82115234 9.68890625 5.12472656 10.5809375 5.4375 11.5 C5.73720703 12.36109375 6.03691406 13.2221875 6.34570312 14.109375 C8.39218127 20.04016631 10.1930016 25.97667199 12 32 C4.41 32 -3.18 32 -11 32 C-9.87606803 25.25640817 -9.87606803 25.25640817 -8.4765625 22.01171875 C-8.17886963 21.30909912 -7.88117676 20.60647949 -7.57446289 19.88256836 C-7.26114014 19.1581958 -6.94781738 18.43382324 -6.625 17.6875 C-4.15690712 11.85365459 -1.8724517 6.05793197 0 0 Z " fill="#F5F7F7" transform="translate(359,884)"/>
<path d="M0 0 C3.57164851 -0.00222133 7.14300405 -0.02054596 10.71459961 -0.03930664 C12.99389544 -0.04223518 15.27319272 -0.04422358 17.55249023 -0.04516602 C18.61595169 -0.05235153 19.67941315 -0.05953705 20.77510071 -0.06694031 C21.76100693 -0.06386368 22.74691315 -0.06078705 23.76269531 -0.05761719 C25.05812004 -0.05975471 25.05812004 -0.05975471 26.37971497 -0.06193542 C28.90581689 0.20488093 30.53991374 0.91473378 32.72045898 2.18530273 C32.39045898 3.17530273 32.06045898 4.16530273 31.72045898 5.18530273 C21.88039267 5.2316339 12.04035229 5.26717593 2.20019913 5.28892708 C-2.36893312 5.29936629 -6.93799077 5.31352804 -11.50708008 5.33618164 C-15.91612736 5.35790507 -20.32510286 5.36987033 -24.73419952 5.37505722 C-26.4167214 5.37875387 -28.09923932 5.38597245 -29.78173065 5.39676285 C-32.1375326 5.41127115 -34.49303755 5.41328096 -36.84887695 5.41235352 C-37.89328949 5.42313934 -37.89328949 5.42313934 -38.95880127 5.43414307 C-42.57288568 5.41873733 -45.20426823 5.15955721 -48.27954102 3.18530273 C-47.14516602 3.04092773 -46.01079102 2.89655273 -44.84204102 2.74780273 C-41.47176901 2.57358796 -41.47176901 2.57358796 -40.27954102 1.18530273 C-37.9759282 0.9369564 -35.70450541 0.76175651 -33.39282227 0.63452148 C-32.27814323 0.57176277 -32.27814323 0.57176277 -31.14094543 0.50773621 C-20.76809225 -0.01212809 -10.38342867 -0.00072505 0 0 Z " fill="#343D40" transform="translate(864.279541015625,382.814697265625)"/>
<path d="M0 0 C0.66 0 1.32 0 2 0 C2.125 2.875 2.125 2.875 2 6 C1.34 6.66 0.68 7.32 0 8 C-0.79206013 9.9057794 -0.79206013 9.9057794 -1.4375 12.09765625 C-1.69273437 12.89880859 -1.94796875 13.69996094 -2.2109375 14.52539062 C-2.73808701 16.22035897 -3.26412425 17.91567364 -3.7890625 19.61132812 C-4.04429687 20.41119141 -4.29953125 21.21105469 -4.5625 22.03515625 C-4.79066406 22.7712915 -5.01882812 23.50742676 -5.25390625 24.26586914 C-6 26 -6 26 -8 27 C-8.43052263 29.55351113 -8.43052263 29.55351113 -8.5625 32.5 C-8.90371389 37.90371389 -8.90371389 37.90371389 -10 39 C-10.66 42.3 -11.32 45.6 -12 49 C-20.58 49 -29.16 49 -38 49 C-38 48.34 -38 47.68 -38 47 C-30.41 47 -22.82 47 -15 47 C-14.67 43.37 -14.34 39.74 -14 36 C-11.96778813 24.2085786 -7.6648427 14.44685277 -2 4 C-1.32656524 2.67007224 -0.65582696 1.33869833 0 0 Z " fill="#323B3C" transform="translate(258,436)"/>
<path d="M0 0 C4.5929708 3.52127761 5.11941917 7.57747597 6 13 C6.66 13 7.32 13 8 13 C8.103125 13.9075 8.20625 14.815 8.3125 15.75 C9.03520734 19.16643469 9.95771925 20.28371593 12 23 C12.67502686 24.56266061 13.29860393 26.14833305 13.875 27.75 C15.49953824 32.00654205 17.48818948 35.64529057 20.046875 39.40625 C21 41 21 41 21 43 C21.66 43 22.32 43 23 43 C23.83848804 44.45537568 24.67063934 45.91440373 25.5 47.375 C25.9640625 48.18710937 26.428125 48.99921875 26.90625 49.8359375 C28 52 28 52 28 54 C28.66 54 29.32 54 30 54 C31.38938077 55.96147874 32.7260411 57.96166576 34 60 C33.01 60.33 32.02 60.66 31 61 C17.94786831 46.15821432 0 20.56620493 0 0 Z " fill="#2C3233" transform="translate(252,582)"/>
<path d="M0 0 C6.03946553 -0.13699938 6.03946553 -0.13699938 9.37057495 2.08374023 C-2.20120156 5.35877132 -13.88637027 5.21929851 -25.81692505 5.14624023 C-27.26028286 5.14121111 -28.70364238 5.13665072 -30.14700317 5.13256836 C-33.6411801 5.12168403 -37.13529117 5.10449873 -40.62942505 5.08374023 C-40.62942505 4.75374023 -40.62942505 4.42374023 -40.62942505 4.08374023 C-44.91942505 4.08374023 -49.20942505 4.08374023 -53.62942505 4.08374023 C-53.29942505 3.09374023 -52.96942505 2.10374023 -52.62942505 1.08374023 C-45.67347777 0.9400364 -38.717502 0.79777656 -31.76150513 0.65649414 C-29.39789164 0.60831981 -27.03428473 0.55982171 -24.67068481 0.51098633 C-21.26241733 0.44062395 -17.85412747 0.37144741 -14.4458313 0.30249023 C-13.3985939 0.28061646 -12.35135651 0.25874268 -11.27238464 0.23620605 C-9.30270102 0.19678561 -7.33293363 0.16128587 -5.36309814 0.13037109 C-3.57513075 0.09987204 -1.78732133 0.05692146 0 0 Z " fill="#202728" transform="translate(437.6294250488281,688.916259765625)"/>
<path d="M0 0 C-2.88950172 2.41911772 -5.76780512 4.82057668 -8.75 7.125 C-11.19087185 8.97854541 -11.19087185 8.97854541 -13 12 C-13.763125 12.391875 -14.52625 12.78375 -15.3125 13.1875 C-18.53227335 15.35897505 -19.74936642 17.56001104 -21.6640625 20.87109375 C-23.43469188 23.69271074 -25.58332245 26.03924119 -27.86328125 28.45703125 C-29.29656475 30.08314079 -29.29656475 30.08314079 -29 33 C-30.375 35.1875 -30.375 35.1875 -32 37 C-32.66 37 -33.32 37 -34 37 C-34.99 39.475 -34.99 39.475 -36 42 C-36.33 42 -36.66 42 -37 42 C-37.50754973 36.6828124 -35.98028506 33.5271941 -33.0625 29.25 C-32.65499512 28.63801758 -32.24749023 28.02603516 -31.82763672 27.39550781 C-26.49580616 19.56290718 -10.3258956 -3.4419652 0 0 Z " fill="#30393B" transform="translate(731,414)"/>
<path d="M0 0 C0.33 0 0.66 0 1 0 C1.77809808 4.1053098 2.109207 7.94568226 2.0625 12.12109375 C2.05412109 13.29389893 2.04574219 14.4667041 2.03710938 15.67504883 C2.02486328 16.91665771 2.01261719 18.1582666 2 19.4375 C1.92840268 32.32094867 2.28490041 45.13771676 3 58 C2.34 58 1.68 58 1 58 C-2.00019987 45.9992005 -2.18138339 34.01246295 -2.1875 21.6875 C-2.19974609 20.36943359 -2.21199219 19.05136719 -2.22460938 17.69335938 C-2.22654297 16.41654297 -2.22847656 15.13972656 -2.23046875 13.82421875 C-2.23457764 12.68041748 -2.23868652 11.53661621 -2.24291992 10.3581543 C-1.97164791 6.6080573 -1.14488946 3.57022875 0 0 Z " fill="#2D3637" transform="translate(244,494)"/>
<path d="M0 0 C-0.42187505 8.15625106 -2.71391376 15.54744305 -6 23 C-6.66 23.33 -7.32 23.66 -8 24 C-9.42865421 17.11648425 -8.69168238 11.52529061 -6 5 C-2.46551724 0 -2.46551724 0 0 0 Z " fill="#1C2426" transform="translate(1030,577)"/>
<path d="M0 0 C1.91475544 0.0951779 3.83288666 0.12986577 5.75 0.125 C7.25820313 0.12886719 7.25820313 0.12886719 8.796875 0.1328125 C12.01586065 0.06386681 12.01586065 0.06386681 15.21875 -0.52734375 C20.11818443 -1.13977305 24.82909806 -0.93661639 29.75 -0.6875 C30.69488281 -0.65205078 31.63976562 -0.61660156 32.61328125 -0.58007812 C33.51949219 -0.53689453 34.42570313 -0.49371094 35.359375 -0.44921875 C36.58865723 -0.39254028 36.58865723 -0.39254028 37.84277344 -0.3347168 C40 0 40 0 43 2 C36.71949126 2.02543977 30.43899591 2.04290455 24.15844727 2.05493164 C22.02367659 2.05994778 19.88890933 2.06676224 17.75415039 2.07543945 C14.67853958 2.08762435 11.60297437 2.09325562 8.52734375 2.09765625 C7.57915268 2.10281754 6.63096161 2.10797882 5.65403748 2.11329651 C0.65687882 2.1137157 -4.07453858 1.85595812 -9 1 C-9 0.67 -9 0.34 -9 0 C-3.375 -1.125 -3.375 -1.125 0 0 Z " fill="#323839" transform="translate(849,692)"/>
<path d="M0 0 C1.32 0.33 2.64 0.66 4 1 C4 1.66 4 2.32 4 3 C4.66 3 5.32 3 6 3 C8 6 8 6 8 9 C9.32 9.33 10.64 9.66 12 10 C12 10.99 12 11.98 12 13 C12.99 13 13.98 13 15 13 C15.12375 13.928125 15.12375 13.928125 15.25 14.875 C15.79394438 17.17972859 15.79394438 17.17972859 18 18.0625 C18.66 18.371875 19.32 18.68125 20 19 C20.33 19.99 20.66 20.98 21 22 C18 22 18 22 15.546875 19.91015625 C0 4.08100559 0 4.08100559 0 0 Z " fill="#323739" transform="translate(733,630)"/>
<path d="M0 0 C0.88051025 0.19698486 0.88051025 0.19698486 1.77880859 0.39794922 C8.37670562 1.80431247 14.90615315 2.5778042 21.625 3.125 C22.62917969 3.21136719 23.63335938 3.29773438 24.66796875 3.38671875 C27.11159966 3.59617283 29.55553841 3.80051757 32 4 C32 4.33 32 4.66 32 5 C27.69859676 5.82117698 23.627264 6.13508586 19.25 6.125 C17.55617188 6.12886719 17.55617188 6.12886719 15.828125 6.1328125 C13 6 13 6 11 5 C8.75618252 4.96967814 6.53088736 5.06643448 4.2890625 5.16015625 C1.74389667 4.98208151 0.18754243 4.27356922 -2 3 C-1.34 2.01 -0.68 1.02 0 0 Z " fill="#192022" transform="translate(835,687)"/>
<path d="M0 0 C1.32 0 2.64 0 4 0 C4.33 0.99 4.66 1.98 5 3 C5.804375 3.804375 6.60875 4.60875 7.4375 5.4375 C9.71601792 7.71601792 10.81859566 9.09192779 12 12 C12.37125 12.9075 12.7425 13.815 13.125 14.75 C13.41375 15.4925 13.7025 16.235 14 17 C12.68 17 11.36 17 10 17 C7.9296875 14.69921875 7.9296875 14.69921875 5.875 11.6875 C5.19179688 10.70136719 4.50859375 9.71523438 3.8046875 8.69921875 C0 3.00865801 0 3.00865801 0 0 Z " fill="#2C3334" transform="translate(720,611)"/>
<path d="M0 0 C0.99 0.495 0.99 0.495 2 1 C2.73075648 3.3140622 3.40138258 5.64828869 4 8 C4.66 8 5.32 8 6 8 C6.64910154 9.58199631 7.29414694 11.16565724 7.9375 12.75 C8.29714844 13.63171875 8.65679688 14.5134375 9.02734375 15.421875 C10 18 10 18 10.44140625 20.265625 C10.62574219 20.83796875 10.81007813 21.4103125 11 22 C11.99 22.33 12.98 22.66 14 23 C14 23.66 14 24.32 14 25 C13.34 25 12.68 25 12 25 C11.67 25.66 11.34 26.32 11 27 C9.33288222 24.01136992 7.69542299 21.00742979 6.0625 18 C5.59392578 17.16082031 5.12535156 16.32164062 4.64257812 15.45703125 C1.79917488 10.17934752 0.32636285 5.99952131 0 0 Z " fill="#2C3435" transform="translate(706,581)"/>
<path d="M0 0 C0.33 0 0.66 0 1 0 C2.74397826 7.39192666 3.39355642 14.54522272 3.625 22.125 C3.66367188 23.176875 3.70234375 24.22875 3.7421875 25.3125 C3.83536341 27.87483756 3.92117382 30.43718779 4 33 C3.34 33 2.68 33 2 33 C0.04833694 25.69278911 -0.24317822 18.9781798 -0.125 11.4375 C-0.11597656 10.33341797 -0.10695312 9.22933594 -0.09765625 8.09179688 C-0.07430128 5.3942983 -0.04155054 2.69726923 0 0 Z " fill="#272E30" transform="translate(243,519)"/>
<path d="M0 0 C0.66 0.33 1.32 0.66 2 1 C-1.86364295 5.48717034 -5.74790208 9.87675353 -10 14 C-10.99 13.67 -11.98 13.34 -13 13 C-8.71 8.71 -4.42 4.42 0 0 Z M-15 15 C-15 15.99 -15 16.98 -15 18 C-16.98 18.99 -16.98 18.99 -19 20 C-17.68 18.35 -16.36 16.7 -15 15 Z M-20 20 C-19.67 20.66 -19.34 21.32 -19 22 C-20.07507629 23.29854721 -21.16043736 24.58858361 -22.25 25.875 C-22.85328125 26.59429687 -23.4565625 27.31359375 -24.078125 28.0546875 C-25.97087634 29.97052118 -27.53657727 30.96449045 -30 32 C-28.52278578 28.54798361 -26.56205999 26.35038064 -23.875 23.75 C-23.15054688 23.04359375 -22.42609375 22.3371875 -21.6796875 21.609375 C-21.12539063 21.07828125 -20.57109375 20.5471875 -20 20 Z " fill="#1B262B" transform="translate(957,448)"/>
<path d="M0 0 C6.33038442 -0.4108663 12.28886462 0.23205614 18.5 1.375 C19.20640625 1.50108643 19.9128125 1.62717285 20.640625 1.75708008 C25.74891496 2.74891496 25.74891496 2.74891496 28 5 C27 6 27 6 24.56640625 6.1328125 C23.57511719 6.13023437 22.58382813 6.12765625 21.5625 6.125 C20.57378906 6.12757813 19.58507812 6.13015625 18.56640625 6.1328125 C16 6 16 6 14 5 C14 4.34 14 3.68 14 3 C13.24074219 2.95101563 12.48148437 2.90203125 11.69921875 2.8515625 C10.70535156 2.77679688 9.71148437 2.70203125 8.6875 2.625 C7.70136719 2.55539062 6.71523438 2.48578125 5.69921875 2.4140625 C3 2 3 2 0 0 Z " fill="#343B3F" transform="translate(471,388)"/>
<path d="M0 0 C0 0.66 0 1.32 0 2 C-13.51724138 9 -13.51724138 9 -20 9 C-20 8.01 -20 7.02 -20 6 C-18.06305322 5.18618205 -16.12542289 4.37399084 -14.1875 3.5625 C-13.10855469 3.11003906 -12.02960938 2.65757812 -10.91796875 2.19140625 C-7.0245625 0.601729 -4.18789342 -0.11318631 0 0 Z " fill="#3A4244" transform="translate(321,395)"/>
<path d="M0 0 C20.295 0.495 20.295 0.495 41 1 C41 1.33 41 1.66 41 2 C38.36 2.33 35.72 2.66 33 3 C33 3.33 33 3.66 33 4 C26.07 4 19.14 4 12 4 C12 3.67 12 3.34 12 3 C7.71 3 3.42 3 -1 3 C-0.67 2.01 -0.34 1.02 0 0 Z " fill="#141B1A" transform="translate(385,690)"/>
<path d="M0 0 C0.99 0.33 1.98 0.66 3 1 C2.52412884 7.02770138 -0.19722957 11.76678289 -3 17 C-3.99 17 -4.98 17 -6 17 C-4.67594074 10.93139507 -2.67149708 5.60236281 0 0 Z " fill="#1C2526" transform="translate(1018,602)"/>
<path d="M0 0 C2.91691525 -0.05401695 5.83282724 -0.09368066 8.75 -0.125 C9.575 -0.14175781 10.4 -0.15851563 11.25 -0.17578125 C12.04921875 -0.18222656 12.8484375 -0.18867188 13.671875 -0.1953125 C14.4050293 -0.20578613 15.13818359 -0.21625977 15.89355469 -0.22705078 C18.29896076 0.03222456 19.91251494 0.80774075 22 2 C19.54724859 3.2263757 17.9494219 3.11415314 15.2109375 3.09765625 C14.26992188 3.09443359 13.32890625 3.09121094 12.359375 3.08789062 C11.37453125 3.07951172 10.3896875 3.07113281 9.375 3.0625 C8.38242187 3.05798828 7.38984375 3.05347656 6.3671875 3.04882812 C3.9113984 3.03702145 1.45572896 3.020554 -1 3 C-0.67 2.01 -0.34 1.02 0 0 Z " fill="#2F3739" transform="translate(431,384)"/>
<path d="M0 0 C0.66 0 1.32 0 2 0 C2.125 2.875 2.125 2.875 2 6 C1.34 6.66 0.68 7.32 0 8 C-0.59834554 9.52056618 -1.13506656 11.06612088 -1.625 12.625 C-1.88539063 13.44226563 -2.14578125 14.25953125 -2.4140625 15.1015625 C-2.60742188 15.72804688 -2.80078125 16.35453125 -3 17 C-3.66 17 -4.32 17 -5 17 C-5 16.34 -5 15.68 -5 15 C-5.66 15 -6.32 15 -7 15 C-5.45454854 9.52067211 -2.84456788 4.88570819 0 0 Z " fill="#2C3436" transform="translate(258,436)"/>
<path d="M0 0 C0.99 0.33 1.98 0.66 3 1 C2.40832031 1.65226562 1.81664062 2.30453125 1.20703125 2.9765625 C-3.98564277 8.69750409 -3.98564277 8.69750409 -8.9375 14.625 C-9.9584375 15.800625 -9.9584375 15.800625 -11 17 C-11.66 17 -12.32 17 -13 17 C-12.40712728 13.4973704 -11.12486634 11.66969023 -8.75 9.0625 C-8.12480469 8.37285156 -7.49960937 7.68320312 -6.85546875 6.97265625 C-4.61788421 4.59375058 -2.34455029 2.27350331 0 0 Z " fill="#272F32" transform="translate(274,418)"/>
<path d="M0 0 C0.33 1.32 0.66 2.64 1 4 C1.66 4 2.32 4 3 4 C3 10.27 3 16.54 3 23 C2.34 23 1.68 23 1 23 C0.03911617 20.11734851 -0.11670941 18.32337729 -0.09765625 15.33203125 C-0.09443359 14.43935547 -0.09121094 13.54667969 -0.08789062 12.62695312 C-0.07951172 11.69818359 -0.07113281 10.76941406 -0.0625 9.8125 C-0.05798828 8.87212891 -0.05347656 7.93175781 -0.04882812 6.96289062 C-0.03704626 4.64186288 -0.02059558 2.32096356 0 0 Z " fill="#273133" transform="translate(686,487)"/>
<path d="M0 0 C-0.66 0.99 -1.32 1.98 -2 3 C-5.07275391 3.2487793 -5.07275391 3.2487793 -8.9765625 3.07421875 C-9.66181 3.04777786 -10.3470575 3.02133698 -11.05307007 2.99409485 C-13.2445899 2.90622738 -15.43447099 2.7971224 -17.625 2.6875 C-19.10931603 2.62425157 -20.59369164 2.56238515 -22.078125 2.50195312 C-25.71957803 2.35067376 -29.35985716 2.1803333 -33 2 C-33 1.67 -33 1.34 -33 1 C-10.40510967 -0.19388403 -10.40510967 -0.19388403 0 0 Z " fill="#151E1F" transform="translate(901,690)"/>
<path d="M0 0 C1.32 0 2.64 0 4 0 C3.734375 1.88671875 3.734375 1.88671875 3 4 C-0.37197859 6.18233194 -3.96114742 7.06630974 -7.9375 6.8125 C-10 6 -10 6 -11 4 C-10.28972656 3.79503906 -9.57945312 3.59007812 -8.84765625 3.37890625 C-7.92855469 3.10949219 -7.00945313 2.84007812 -6.0625 2.5625 C-4.68771484 2.16224609 -4.68771484 2.16224609 -3.28515625 1.75390625 C-1.0597507 1.20973949 -1.0597507 1.20973949 0 0 Z " fill="#1D2526" transform="translate(942,678)"/>
<path d="M0 0 C-1 3 -1 3 -2.890625 3.94921875 C-10.75674619 6.41063747 -10.75674619 6.41063747 -15 6 C-15 4.68 -15 3.36 -15 2 C-13.2508503 1.66223316 -11.50063855 1.32996329 -9.75 1 C-8.77546875 0.814375 -7.8009375 0.62875 -6.796875 0.4375 C-4 0 -4 0 0 0 Z " fill="#1C2426" transform="translate(476,681)"/>
<path d="M0 0 C0.51046875 0.23589844 1.0209375 0.47179687 1.546875 0.71484375 C-2.04551596 3.22116303 -5.40214611 5.09445219 -9.453125 6.71484375 C-9.783125 7.37484375 -10.113125 8.03484375 -10.453125 8.71484375 C-13.015625 9.33984375 -13.015625 9.33984375 -15.453125 9.71484375 C-15.783125 8.72484375 -16.113125 7.73484375 -16.453125 6.71484375 C-14.21005472 5.51234217 -11.9602459 4.32792755 -9.703125 3.15234375 C-8.75179687 2.63897461 -8.75179687 2.63897461 -7.78125 2.11523438 C-3.00217062 -0.34897843 -3.00217062 -0.34897843 0 0 Z " fill="#31383B" transform="translate(750.453125,402.28515625)"/>
<path d="M0 0 C-0.33 0.66 -0.66 1.32 -1 2 C-8.20685159 3.92341015 -15.58067632 4.29545979 -23 4 C-16.27467414 -0.48355057 -7.84654605 -0.30050602 0 0 Z " fill="#262F31" transform="translate(369,386)"/>
<path d="M0 0 C0.66 0 1.32 0 2 0 C2.81564858 3.58885375 3.16216156 6.94585805 3.1875 10.625 C3.20167969 11.56601562 3.21585938 12.50703125 3.23046875 13.4765625 C3 16 3 16 1 19 C-1.48063781 6.51480638 -1.48063781 6.51480638 0 0 Z " fill="#2B3133" transform="translate(689,530)"/>
<path d="M0 0 C-3.95850208 3.74025767 -6.72280122 4.61061536 -12.125 4.9375 C-13.34445312 5.02902344 -14.56390625 5.12054688 -15.8203125 5.21484375 C-19 5 -19 5 -20.9296875 3.50390625 C-21.28289063 3.00761719 -21.63609375 2.51132812 -22 2 C-7.40318907 -0.29612756 -7.40318907 -0.29612756 0 0 Z " fill="#454C4F" transform="translate(823,385)"/>
<path d="M0 0 C0.33 0.99 0.66 1.98 1 3 C2.32 2.67 3.64 2.34 5 2 C3.7260411 4.03833424 2.38938077 6.03852126 1 8 C0.34 8 -0.32 8 -1 8 C-1.66 9.65 -2.32 11.3 -3 13 C-3.33 13 -3.66 13 -4 13 C-4.5497272 7.36529617 -2.95047835 4.61012242 0 0 Z " fill="#323B3E" transform="translate(698,443)"/>
<path d="M0 0 C2.5843218 2.5843218 3.10401163 4.89375577 4.1875 8.375 C4.55230469 9.51710938 4.91710937 10.65921875 5.29296875 11.8359375 C5.95860385 14.81474653 6.07938697 16.20871903 5 19 C1.71125344 12.6672508 0.29754029 7.12608999 0 0 Z " fill="#0F191A" transform="translate(699,561)"/>
<path d="M0 0 C0.99 0.33 1.98 0.66 3 1 C3.94921875 3.06640625 3.94921875 3.06640625 4.6875 5.5625 C4.93886719 6.38878906 5.19023438 7.21507812 5.44921875 8.06640625 C5.63097656 8.70449219 5.81273437 9.34257813 6 10 C3.625 9.8125 3.625 9.8125 1 9 C-0.59642719 6.31509973 -1.12740282 4.78565071 -0.625 1.6875 C-0.41875 1.130625 -0.2125 0.57375 0 0 Z " fill="#353D3D" transform="translate(697,568)"/>
<path d="M0 0 C5.06998019 0.65419099 9.41990777 2.8546409 14 5 C14 5.33 14 5.66 14 6 C8.32723489 6.29341888 5.00932754 6.00559652 0 3 C0 2.01 0 1.02 0 0 Z " fill="#1D2423" transform="translate(782,671)"/>
<path d="M0 0 C-3.49087093 4.0042343 -5.64951939 5.62671065 -11 6 C-11 4.68 -11 3.36 -11 2 C-3.57142857 -1.57142857 -3.57142857 -1.57142857 0 0 Z " fill="#1C2426" transform="translate(490,675)"/>
<path d="M0 0 C0.99 0.495 0.99 0.495 2 1 C2.33926947 3.33247761 2.67240066 5.66585471 3 8 C3.66 8.66 4.32 9.32 5 10 C5.125 13.625 5.125 13.625 5 17 C4.34 17 3.68 17 3 17 C1.03181664 11.17745757 -0.40214229 6.16618181 0 0 Z " fill="#2B3335" transform="translate(248,564)"/>
<path d="M0 0 C0 0.99 0 1.98 0 3 C0.0825 3.804375 0.165 4.60875 0.25 5.4375 C0 8 0 8 -1.875 10.3125 C-4 12 -4 12 -6 12 C-6.33 11.01 -6.66 10.02 -7 9 C-5.71937515 7.2925002 -4.38232443 5.62626404 -3 4 C-2.67 3.01 -2.34 2.02 -2 1 C-1.34 0.67 -0.68 0.34 0 0 Z " fill="#1D2625" transform="translate(996,638)"/>
<path d="M0 0 C0.66 0 1.32 0 2 0 C2.66 0.99 3.32 1.98 4 3 C4.99 3.33 5.98 3.66 7 4 C7 4.66 7 5.32 7 6 C7.66 6 8.32 6 9 6 C9 6.99 9 7.98 9 9 C5.85669777 8.6507442 4.20508548 8.16074267 1.6875 6.1875 C0 4 0 4 0 0 Z " fill="#2E3536" transform="translate(287,644)"/>
<path d="M0 0 C1.74965358 -0.05429959 3.49979787 -0.09292823 5.25 -0.125 C6.22453125 -0.14820313 7.1990625 -0.17140625 8.203125 -0.1953125 C11.0196498 0.00137219 12.60949036 0.55431084 15 2 C12.39080172 3.30459914 10.41057385 3.1326594 7.5 3.125 C6.5203125 3.12757813 5.540625 3.13015625 4.53125 3.1328125 C2 3 2 3 0 2 C0 1.34 0 0.68 0 0 Z " fill="#2C3537" transform="translate(900,385)"/>
<path d="M0 0 C4.95 1.98 4.95 1.98 10 4 C9.01 4.495 9.01 4.495 8 5 C8 5.66 8 6.32 8 7 C4.65626525 6.44271087 1.96687001 5.64826111 -1 4 C-0.67 2.68 -0.34 1.36 0 0 Z " fill="#1D2423" transform="translate(324,672)"/>
<path d="M0 0 C-0.33 4.29 -0.66 8.58 -1 13 C-1.33 13 -1.66 13 -2 13 C-2 11.35 -2 9.7 -2 8 C-2.99 8.33 -3.98 8.66 -5 9 C-5.25 6.1875 -5.25 6.1875 -5 3 C-1.9 0 -1.9 0 0 0 Z " fill="#32393A" transform="translate(1037,547)"/>
<path d="M0 0 C-1 1.9375 -1 1.9375 -3 4 C-5.69924572 4.66549451 -8.20631637 4.81680763 -11 5 C-11 4.01 -11 3.02 -11 2 C-7.36576791 -0.32590854 -4.22911669 -0.16265833 0 0 Z " fill="#30383A" transform="translate(312,399)"/>
<path d="M0 0 C0.78246094 -0.01417969 1.56492187 -0.02835938 2.37109375 -0.04296875 C4.5625 0.1875 4.5625 0.1875 7.5625 2.1875 C4.91791621 3.50979189 2.88488699 3.28427194 -0.0625 3.25 C-1.06539063 3.24097656 -2.06828125 3.23195313 -3.1015625 3.22265625 C-3.87242187 3.21105469 -4.64328125 3.19945312 -5.4375 3.1875 C-5.7675 2.5275 -6.0975 1.8675 -6.4375 1.1875 C-4.0978331 0.01766655 -2.60358473 0.0213759 0 0 Z " fill="#192121" transform="translate(439.4375,688.8125)"/>
<path d="M0 0 C0.99 0 1.98 0 3 0 C3.99 2.97 4.98 5.94 6 9 C5.01 9.495 5.01 9.495 4 10 C0.9083091 7.47043472 0.09068668 4.77545388 -1 1 C-0.67 0.67 -0.34 0.34 0 0 Z " fill="#1D2727" transform="translate(589,458)"/>
<path d="M0 0 C0 0.66 0 1.32 0 2 C1.32 2.66 2.64 3.32 4 4 C-1.15171623 4.09038099 -5.91913204 3.84681133 -11 3 C-11 2.67 -11 2.34 -11 2 C-7.17679443 0.57741188 -4.08718695 -0.24042276 0 0 Z " fill="#474D4B" transform="translate(385,690)"/>
<path d="M0 0 C1.32 0.33 2.64 0.66 4 1 C4 1.66 4 2.32 4 3 C4.66 3 5.32 3 6 3 C6.66 4.65 7.32 6.3 8 8 C4.82461668 7.65978036 3.97723135 6.97533396 1.75 4.5625 C0 2 0 2 0 0 Z " fill="#293232" transform="translate(733,630)"/>
<path d="M0 0 C5.12583611 -0.10251672 9.94997778 -0.03590199 15 1 C14.67 1.66 14.34 2.32 14 3 C12.41753293 3.08153933 10.83383727 3.13943557 9.25 3.1875 C8.36828125 3.22230469 7.4865625 3.25710938 6.578125 3.29296875 C3.55328417 2.94923684 2.24416398 1.99772541 0 0 Z " fill="#41494B" transform="translate(364,385)"/>
<path d="M0 0 C0 0.99 0 1.98 0 3 C-0.66 3.66 -1.32 4.32 -2 5 C-2 5.99 -2 6.98 -2 8 C-3.375 9.6875 -3.375 9.6875 -5 11 C-5.66 11 -6.32 11 -7 11 C-6.40716379 7.60807637 -5.23256811 5.7892243 -2.9375 3.25 C-2.38964844 2.63640625 -1.84179688 2.0228125 -1.27734375 1.390625 C-0.85582031 0.93171875 -0.43429687 0.4728125 0 0 Z " fill="#2F3839" transform="translate(268,424)"/>
<path d="M0 0 C0.33 0.66 0.66 1.32 1 2 C-1.31 2 -3.62 2 -6 2 C-6.33 2.99 -6.66 3.98 -7 5 C-9.50357861 4.1654738 -11.66785852 3.20628008 -14 2 C-4.58997722 -0.29612756 -4.58997722 -0.29612756 0 0 Z " fill="#464C4E" transform="translate(795,389)"/>
<path d="M0 0 C3.3 0 6.6 0 10 0 C9.67 1.32 9.34 2.64 9 4 C6.1875 4.25 6.1875 4.25 3 4 C2.01 2.68 1.02 1.36 0 0 Z " fill="#2E3739" transform="translate(887,384)"/>
<path d="M0 0 C0 0.66 0 1.32 0 2 C-0.99 2 -1.98 2 -3 2 C-3 3.32 -3 4.64 -3 6 C-4.32 6.33 -5.64 6.66 -7 7 C-7.33 5.68 -7.66 4.36 -8 3 C-3.375 0 -3.375 0 0 0 Z " fill="#1B2424" transform="translate(968,666)"/>
<path d="M0 0 C1.32 0.66 2.64 1.32 4 2 C2.63016497 5.16115776 2.0109362 5.9927092 -1 8 C-1.66 7.01 -2.32 6.02 -3 5 C-2.01 3.35 -1.02 1.7 0 0 Z " fill="#1F2626" transform="translate(985,649)"/>
<path d="M0 0 C-0.33 1.65 -0.66 3.3 -1 5 C-2.65 5.33 -4.3 5.66 -6 6 C-5.625 3.5625 -5.625 3.5625 -5 1 C-3 0 -3 0 0 0 Z " fill="#2A3032" transform="translate(584,572)"/>
<path d="M0 0 C3.125 0.375 3.125 0.375 6 1 C5.67 1.99 5.34 2.98 5 4 C5.66 4.33 6.32 4.66 7 5 C0.84765625 4.4140625 0.84765625 4.4140625 -1 4 C-1.33 3.34 -1.66 2.68 -2 2 C-1.34 1.34 -0.68 0.68 0 0 Z " fill="#313838" transform="translate(821,685)"/>
<path d="M0 0 C1.093125 0.226875 2.18625 0.45375 3.3125 0.6875 C3.3125 1.6775 3.3125 2.6675 3.3125 3.6875 C-0.50239674 5.15476798 -2.97761622 4.12086419 -6.6875 2.6875 C-4.58035839 -0.41123767 -3.86755884 -0.32775922 0 0 Z " fill="#2F3435" transform="translate(810.6875,681.3125)"/>
<path d="M0 0 C1.58323688 -0.027193 3.16661062 -0.04648306 4.75 -0.0625 C6.07257813 -0.07990234 6.07257813 -0.07990234 7.421875 -0.09765625 C9.7818838 -0.00826198 11.74498524 0.33087179 14 1 C14 1.66 14 2.32 14 3 C12.22844346 2.88570603 10.45773771 2.75816963 8.6875 2.625 C7.70136719 2.55539062 6.71523438 2.48578125 5.69921875 2.4140625 C3 2 3 2 0 0 Z " fill="#2A3032" transform="translate(471,388)"/>
<path d="M0 0 C2.3828125 -0.29296875 2.3828125 -0.29296875 5.125 -0.1875 C6.03507812 -0.16042969 6.94515625 -0.13335937 7.8828125 -0.10546875 C8.58148438 -0.07066406 9.28015625 -0.03585937 10 0 C9 2 9 2 7.375 2.625 C4.2339425 3.12095645 1.17398169 3.06103811 -2 3 C-1.34 2.01 -0.68 1.02 0 0 Z " fill="#30383A" transform="translate(359,386)"/>
<path d="M0 0 C1.46067199 0.45082469 2.91848032 0.91093537 4.375 1.375 C5.18710937 1.63023437 5.99921875 1.88546875 6.8359375 2.1484375 C9 3 9 3 11 5 C8.36 5 5.72 5 3 5 C3 4.01 3 3.02 3 2 C1.68 1.67 0.36 1.34 -1 1 C-0.67 0.67 -0.34 0.34 0 0 Z " fill="#192122" transform="translate(336,678)"/>
<path d="M0 0 C1.32 1.32 2.64 2.64 4 4 C3.01 5.98 2.02 7.96 1 10 C0.67 10 0.34 10 0 10 C-0.19412181 8.52168779 -0.38012131 7.04230684 -0.5625 5.5625 C-0.66691406 4.73878906 -0.77132812 3.91507812 -0.87890625 3.06640625 C-0.91886719 2.38449219 -0.95882812 1.70257813 -1 1 C-0.67 0.67 -0.34 0.34 0 0 Z " fill="#1B2523" transform="translate(581,439)"/>
<path d="M0 0 C0.33 0.66 0.66 1.32 1 2 C-0.65 4.31 -2.3 6.62 -4 9 C-4.33 7.68 -4.66 6.36 -5 5 C-2.5625 2.25 -2.5625 2.25 0 0 Z " fill="#283133" transform="translate(704,437)"/>
<path d="M0 0 C0 0.33 0 0.66 0 1 C-5.324335 3.32086397 -9.43842552 2.91457003 -15 2 C-15 1.67 -15 1.34 -15 1 C-9.91913204 0.15318867 -5.15171623 -0.09038099 0 0 Z " fill="#2B3235" transform="translate(831,385)"/>
<path d="M0 0 C4 4.875 4 4.875 4 6 C1.69 6 -0.62 6 -3 6 C-2 4 -1 2 0 0 Z " fill="#343838" transform="translate(812,941)"/>
<path d="M0 0 C1.76065836 2.64098754 2.52722899 3.9742655 3 7 C2.67 7.99 2.34 8.98 2 10 C0.68 9.34 -0.64 8.68 -2 8 C-1.34 8 -0.68 8 0 8 C0 5.36 0 2.72 0 0 Z " fill="#1D2527" transform="translate(574,573)"/>
<path d="M0 0 C0.66 0 1.32 0 2 0 C3.23076923 5.41538462 3.23076923 5.41538462 2.0625 8.375 C1.711875 8.91125 1.36125 9.4475 1 10 C0 9 0 9 -0.09765625 6.93359375 C-0.08605469 6.10988281 -0.07445312 5.28617188 -0.0625 4.4375 C-0.05347656 3.61121094 -0.04445312 2.78492188 -0.03515625 1.93359375 C-0.02355469 1.29550781 -0.01195312 0.65742187 0 0 Z " fill="#2D3434" transform="translate(246,554)"/>
<path d="M0 0 C-0.33 2.97 -0.66 5.94 -1 9 C-1.99 8.67 -2.98 8.34 -4 8 C-3.74438677 5.6568787 -3.40729228 3.32156597 -3 1 C-1 0 -1 0 0 0 Z " fill="#172021" transform="translate(595,512)"/>
<path d="M0 0 C3.82946843 1.45255699 5.12050295 3.42895561 7 7 C4 7 4 7 2.375 5.75 C0.8631638 3.82584484 0.41208721 2.39010582 0 0 Z " fill="#30393B" transform="translate(724,614)"/>
<path d="M0 0 C1.258125 -0.04125 2.51625 -0.0825 3.8125 -0.125 C4.52019531 -0.14820313 5.22789062 -0.17140625 5.95703125 -0.1953125 C8 0 8 0 11 2 C9.35 2 7.7 2 6 2 C6 2.66 6 3.32 6 4 C3.00667261 3.0022242 2.05233685 2.2477975 0 0 Z " fill="#2A3235" transform="translate(930,389)"/>
<path d="M0 0 C-0.33 1.32 -0.66 2.64 -1 4 C-4.37462715 3.45276317 -6.08235 2.9451 -9 1 C-2.25 0 -2.25 0 0 0 Z " fill="#323537" transform="translate(349,682)"/>
<path d="M0 0 C3.73487777 0.4979837 5.81237635 0.87491756 9 3 C9 3.66 9 4.32 9 5 C2.25 3.375 2.25 3.375 0 0 Z " fill="#313838" transform="translate(528,401)"/>
<path d="M0 0 C1.65 0 3.3 0 5 0 C4.01 1.485 4.01 1.485 3 3 C2.34 3 1.68 3 1 3 C1 3.66 1 4.32 1 5 C0.01 5.33 -0.98 5.66 -2 6 C-2 5.01 -2 4.02 -2 3 C-1.34 3 -0.68 3 0 3 C0 2.01 0 1.02 0 0 Z " fill="#323B3D" transform="translate(755,399)"/>
<path d="M0 0 C0.66 0.33 1.32 0.66 2 1 C0.515 3.475 0.515 3.475 -1 6 C-2.32 5.67 -3.64 5.34 -5 5 C-4.34 4.67 -3.68 4.34 -3 4 C-3 3.34 -3 2.68 -3 2 C-2.01 1.34 -1.02 0.68 0 0 Z " fill="#182223" transform="translate(503,665)"/>
<path d="M0 0 C0.99 0.33 1.98 0.66 3 1 C2.67 2.65 2.34 4.3 2 6 C1.01 6 0.02 6 -1 6 C-1.042721 4.33388095 -1.04063832 2.66617115 -1 1 C-0.67 0.67 -0.34 0.34 0 0 Z " fill="#172224" transform="translate(688,462)"/>
<path d="M0 0 C0.9075 0.226875 1.815 0.45375 2.75 0.6875 C2.75 1.3475 2.75 2.0075 2.75 2.6875 C-0.55 2.6875 -3.85 2.6875 -7.25 2.6875 C-3.25 -0.3125 -3.25 -0.3125 0 0 Z " fill="#2F3638" transform="translate(516.25,396.3125)"/>
<path d="M0 0 C1.65 1.65 3.3 3.3 5 5 C4.01 6.485 4.01 6.485 3 8 C0 3.375 0 3.375 0 0 Z " fill="#303838" transform="translate(573,428)"/>
<path d="M0 0 C0.66 0.33 1.32 0.66 2 1 C0.71937515 2.7074998 -0.61767557 4.37373596 -2 6 C-2.66 6 -3.32 6 -4 6 C-4.33 6.66 -4.66 7.32 -5 8 C-4.45773019 4.20411134 -2.79872437 2.52788007 0 0 Z " fill="#252F32" transform="translate(714,424)"/>
<path d="M0 0 C-1.75 3.875 -1.75 3.875 -4 5 C-4.66 4.34 -5.32 3.68 -6 3 C-2.25 0 -2.25 0 0 0 Z " fill="#333B3E" transform="translate(281,414)"/>
<path d="M0 0 C0.99 0.33 1.98 0.66 3 1 C1.63016497 4.16115776 1.0109362 4.9927092 -2 7 C-1.34 4.69 -0.68 2.38 0 0 Z " fill="#3E4244" transform="translate(873,882)"/>
<path d="M0 0 C0.33 0.99 0.66 1.98 1 3 C-2.75 6 -2.75 6 -5 6 C-5 5.01 -5 4.02 -5 3 C-4.01 3 -3.02 3 -2 3 C-2 2.34 -2 1.68 -2 1 C-1.34 0.67 -0.68 0.34 0 0 Z " fill="#2A3232" transform="translate(970,665)"/>
<path d="M0 0 C0.66 0 1.32 0 2 0 C2.33 1.65 2.66 3.3 3 5 C1.35 4.67 -0.3 4.34 -2 4 C-2 3.34 -2 2.68 -2 2 C-1.34 2 -0.68 2 0 2 C0 1.34 0 0.68 0 0 Z " fill="#474E4D" transform="translate(700,573)"/>
<path d="M0 0 C1.32 0.99 2.64 1.98 4 3 C3.67 4.32 3.34 5.64 3 7 C3 6.34 3 5.68 3 5 C1.68 4.67 0.36 4.34 -1 4 C-0.67 2.68 -0.34 1.36 0 0 Z " fill="#263032" transform="translate(690,524)"/>
<path d="M0 0 C0.598125 0.20625 1.19625 0.4125 1.8125 0.625 C-0.4975 1.945 -2.8075 3.265 -5.1875 4.625 C-5.1875 3.635 -5.1875 2.645 -5.1875 1.625 C-2.1875 -0.375 -2.1875 -0.375 0 0 Z " fill="#363C3F" transform="translate(289.1875,408.375)"/>
<path d="M0 0 C-0.33 0.66 -0.66 1.32 -1 2 C-3.32156597 2.40729228 -5.6568787 2.74438677 -8 3 C-8 2.34 -8 1.68 -8 1 C-5.29120665 -0.35439668 -2.99066732 -0.06501451 0 0 Z " fill="#2D3538" transform="translate(337,391)"/>
</svg>
